<svg width="434" height="50" viewBox="0 0 434 50" fill="none" xmlns="http://www.w3.org/2000/svg">
<path d="M20.2188 16.1094C20.2812 16.2031 20.4141 16.4453 20.6172 16.8359C20.8359 17.2109 21.0391 17.7656 21.2266 18.5C21.4297 19.2188 21.5312 20.0391 21.5312 20.9609C21.5312 24.1016 20.5859 26.4453 18.6953 27.9922C16.8047 29.5391 14.2266 30.3125 10.9609 30.3125C10.0703 30.3125 9.28906 30.2578 8.61719 30.1484C7.94531 30.0391 7.52344 29.9531 7.35156 29.8906L7.11719 34.3906H14.5703C17.7109 34.3906 20.0938 34.9844 21.7188 36.1719C23.3438 37.3594 24.1562 39.0859 24.1562 41.3516C24.1562 44.0703 23.1016 46.1875 20.9922 47.7031C18.8828 49.2344 15.7812 50 11.6875 50C8.07812 50 5.25 49.4609 3.20312 48.3828C1.17188 47.3203 0.15625 45.5391 0.15625 43.0391C0.15625 41.7578 0.53125 40.6641 1.28125 39.7578C2.03125 38.8672 2.86719 38.1797 3.78906 37.6953C4.72656 37.1953 5.19531 36.9766 5.19531 37.0391C5.19531 37.0703 4.92969 37.0078 4.39844 36.8516C3.88281 36.6953 3.40625 36.4141 2.96875 36.0078C2.53125 35.6016 2.3125 35.0312 2.3125 34.2969C2.3125 33.8125 2.49219 33.1719 2.85156 32.375C3.22656 31.5781 3.61719 30.8438 4.02344 30.1719C4.42969 29.5 4.69531 29.0703 4.82031 28.8828C4.82031 28.9766 4.47656 28.7344 3.78906 28.1562C3.10156 27.5781 2.48438 26.7422 1.9375 25.6484C1.39062 24.5391 1.11719 23.1328 1.11719 21.4297C1.11719 18.3828 2.07031 16.0625 3.97656 14.4688C5.88281 12.875 8.45312 12.0781 11.6875 12.0781C12.6094 12.0781 13.4219 12.1406 14.125 12.2656C14.8281 12.3906 15.3672 12.5312 15.7422 12.6875C16.1328 12.8281 16.375 12.9297 16.4688 12.9922L24.8828 12.8047V15.4297L20.2188 16.1094ZM11.4297 15.4297C9.55469 15.4297 8.16406 15.9062 7.25781 16.8594C6.36719 17.7969 5.92188 19.2422 5.92188 21.1953C5.92188 22.9609 6.36719 24.3672 7.25781 25.4141C8.16406 26.4453 9.47656 26.9609 11.1953 26.9609C13.1172 26.9609 14.5156 26.5078 15.3906 25.6016C16.2812 24.6797 16.7266 23.2109 16.7266 21.1953C16.7266 19.3359 16.2812 17.9141 15.3906 16.9297C14.5156 15.9297 13.1953 15.4297 11.4297 15.4297ZM8.07812 38C8.07812 37.9375 7.78906 38.1016 7.21094 38.4922C6.63281 38.8984 6.10938 39.4219 5.64062 40.0625C5.1875 40.7031 4.96094 41.4531 4.96094 42.3125C4.96094 43.875 5.57812 44.9453 6.8125 45.5234C8.04688 46.1016 9.90625 46.3906 12.3906 46.3906C14.8281 46.3906 16.6406 46.0156 17.8281 45.2656C19.0156 44.5156 19.6094 43.375 19.6094 41.8438C19.6094 40.375 19.0859 39.3672 18.0391 38.8203C16.9922 38.2734 15.4297 38 13.3516 38H8.07812ZM56.0781 37.7656L48.1562 38L47.6875 34.6484C46.7344 35.5078 45.4375 36.3594 43.7969 37.2031C42.1562 38.0469 40.4922 38.4688 38.8047 38.4688C36.2422 38.4688 34.3203 37.7188 33.0391 36.2188C31.7578 34.7188 31.1172 32.6094 31.1172 29.8906V16.3906L27.0391 15.4297V12.8047L35.9219 12.5703V29.3984C35.9219 31.1016 36.2578 32.3594 36.9297 33.1719C37.6016 33.9844 38.7031 34.3906 40.2344 34.3906C41.4531 34.3906 42.5703 34.1172 43.5859 33.5703C44.6172 33.0078 45.4766 32.3906 46.1641 31.7188C46.8516 31.0469 47.1953 30.6797 47.1953 30.6172V16.3906L43.1172 15.4297V12.8047L52 12.5703V34.1562L56.0781 35.1172V37.7656ZM67.5625 15.9688C68.4688 15.1094 69.7188 14.25 71.3125 13.3906C72.9062 12.5156 74.5547 12.0781 76.2578 12.0781C79.4922 12.0781 81.7188 13.4531 82.9375 16.2031C83.7344 15.4062 84.9453 14.5234 86.5703 13.5547C88.2109 12.5703 89.9766 12.0781 91.8672 12.0781C94.4297 12.0781 96.3047 12.8359 97.4922 14.3516C98.6953 15.8516 99.2969 17.9766 99.2969 20.7266V34.1562L102.906 35.3516V38H91.375V35.3516L94.4922 34.1562V21.1953C94.4922 19.4297 94.1875 18.1484 93.5781 17.3516C92.9688 16.5547 91.9141 16.1562 90.4141 16.1562C89.1953 16.1562 88.0859 16.4453 87.0859 17.0234C86.1016 17.6016 85.2891 18.2266 84.6484 18.8984C84.0078 19.5703 83.6875 19.9375 83.6875 20V34.1562L86.8281 35.3516V38H75.7656V35.3516L78.9062 34.1562V21.1953C78.9062 19.4297 78.6016 18.1484 77.9922 17.3516C77.3828 16.5547 76.3281 16.1562 74.8281 16.1562C73.6094 16.1562 72.5 16.4453 71.5 17.0234C70.5156 17.6016 69.7031 18.2266 69.0625 18.8984C68.4219 19.5703 68.1016 19.9375 68.1016 20V34.1562L71.2188 35.3516V38H59.2188V35.3516L63.2969 34.1562V16.3906L59.2188 15.4297V12.8047L67.1406 12.5703L67.5625 15.9688ZM114.625 15.9688C115.625 15.1094 116.93 14.25 118.539 13.3906C120.164 12.5156 121.836 12.0781 123.555 12.0781C126.117 12.0781 128.039 12.8438 129.32 14.375C130.602 15.8906 131.242 18.0078 131.242 20.7266V34.1562L134.828 35.3516V38H123.32V35.3516L126.438 34.1562V21.1953C126.438 19.4609 126.102 18.1875 125.43 17.375C124.758 16.5625 123.656 16.1562 122.125 16.1562C120.906 16.1562 119.781 16.4453 118.75 17.0234C117.734 17.6016 116.883 18.2266 116.195 18.8984C115.508 19.5703 115.164 19.9375 115.164 20V34.1562L118.281 35.3516V38H106.281V35.3516L110.359 34.1562V16.3906L106.281 15.4297V12.8047L114.203 12.5703L114.625 15.9688ZM166.281 37.7656L158.359 38L157.891 34.6484C156.938 35.5078 155.641 36.3594 154 37.2031C152.359 38.0469 150.695 38.4688 149.008 38.4688C146.445 38.4688 144.523 37.7188 143.242 36.2188C141.961 34.7188 141.32 32.6094 141.32 29.8906V16.3906L137.242 15.4297V12.8047L146.125 12.5703V29.3984C146.125 31.1016 146.461 32.3594 147.133 33.1719C147.805 33.9844 148.906 34.3906 150.438 34.3906C151.656 34.3906 152.773 34.1172 153.789 33.5703C154.82 33.0078 155.68 32.3906 156.367 31.7188C157.055 31.0469 157.398 30.6797 157.398 30.6172V16.3906L153.32 15.4297V12.8047L162.203 12.5703V34.1562L166.281 35.1172V37.7656ZM185.031 16.3906H178.07V31.8125C178.07 33.7656 178.867 34.7422 180.461 34.7422C181.492 34.7422 182.742 34.3438 184.211 33.5469L185.5 36.0781C183.328 37.6719 181.086 38.4688 178.773 38.4688C177.148 38.4688 175.82 37.9375 174.789 36.875C173.773 35.7969 173.266 34.0156 173.266 31.5312V16.3906H168.461V13.2734L173.266 12.8047V6.75781L178.07 5.79688V12.8047H185.031V16.3906ZM203.617 34.8828C203.617 34.9453 203.203 35.2969 202.375 35.9375C201.547 36.5781 200.555 37.1641 199.398 37.6953C198.242 38.2109 197.055 38.4688 195.836 38.4688C193.492 38.4688 191.656 37.8203 190.328 36.5234C189.016 35.2109 188.359 33.3516 188.359 30.9453C188.359 28.1953 189.344 26.1875 191.312 24.9219C193.281 23.6562 196.148 23.0234 199.914 23.0234H203.289V20.375C203.289 18.0312 202.055 16.8672 199.586 16.8828C198.852 16.8828 198.172 16.9375 197.547 17.0469C196.922 17.1562 196.422 17.2734 196.047 17.3984C195.688 17.5078 195.461 17.5781 195.367 17.6094L194.641 20.6328H190.328L190 13.5312C190.281 13.4375 190.969 13.2344 192.062 12.9219C193.172 12.6094 194.492 12.3125 196.023 12.0312C197.57 11.75 199.031 11.6094 200.406 11.6094C202.875 11.6094 204.836 11.9219 206.289 12.5469C207.742 13.1562 208.805 14.1562 209.477 15.5469C210.148 16.9219 210.484 18.7734 210.484 21.1016V32.9609L214.094 33.8281V37.6719L204.484 38L203.617 34.8828ZM195.32 30.2188C195.32 31.1562 195.562 31.875 196.047 32.375C196.547 32.8594 197.25 33.1016 198.156 33.1016C198.922 33.1016 199.68 32.8984 200.43 32.4922C201.18 32.0703 201.812 31.6406 202.328 31.2031C202.844 30.75 203.164 30.4531 203.289 30.3125V27.1016H200.547C198.688 27.1016 197.352 27.3516 196.539 27.8516C195.727 28.3516 195.32 29.1406 195.32 30.2188ZM221.805 32.7266C221.805 32.7578 222.227 32.8438 223.07 32.9844C223.914 33.125 224.836 33.1953 225.836 33.1953C228.461 33.1953 229.766 32.4141 229.75 30.8516C229.75 30.1484 229.383 29.5781 228.648 29.1406C227.914 28.7031 226.75 28.2188 225.156 27.6875C223.453 27.1094 222.055 26.5469 220.961 26C219.883 25.4531 218.945 24.6797 218.148 23.6797C217.352 22.6641 216.953 21.375 216.953 19.8125C216.953 17 217.891 14.9297 219.766 13.6016C221.656 12.2734 224.016 11.6094 226.844 11.6094C228.125 11.6094 229.422 11.7109 230.734 11.9141C232.062 12.1172 233.172 12.3438 234.062 12.5938C234.969 12.8281 235.531 12.9766 235.75 13.0391L235.562 20.2344H231.484L230.781 17.3516C230.781 17.3203 230.422 17.2344 229.703 17.0938C229 16.9531 228.25 16.8828 227.453 16.8828C226.391 16.8828 225.57 17.0938 224.992 17.5156C224.43 17.9219 224.148 18.5234 224.148 19.3203C224.148 20.0234 224.516 20.5859 225.25 21.0078C225.984 21.4297 227.148 21.875 228.742 22.3438C230.445 22.8906 231.844 23.4141 232.938 23.9141C234.047 24.4141 234.992 25.1484 235.773 26.1172C236.57 27.0703 236.969 28.3125 236.969 29.8438C236.969 32.5625 235.969 34.6797 233.969 36.1953C231.969 37.7109 229.289 38.4688 225.93 38.4688C224.586 38.4688 223.258 38.3906 221.945 38.2344C220.633 38.0781 219.547 37.9219 218.688 37.7656C217.844 37.6094 217.312 37.4922 217.094 37.4141V29.6094H221.406L221.805 32.7266ZM245.195 32.7266C245.195 32.7578 245.617 32.8438 246.461 32.9844C247.305 33.125 248.227 33.1953 249.227 33.1953C251.852 33.1953 253.156 32.4141 253.141 30.8516C253.141 30.1484 252.773 29.5781 252.039 29.1406C251.305 28.7031 250.141 28.2188 248.547 27.6875C246.844 27.1094 245.445 26.5469 244.352 26C243.273 25.4531 242.336 24.6797 241.539 23.6797C240.742 22.6641 240.344 21.375 240.344 19.8125C240.344 17 241.281 14.9297 243.156 13.6016C245.047 12.2734 247.406 11.6094 250.234 11.6094C251.516 11.6094 252.812 11.7109 254.125 11.9141C255.453 12.1172 256.562 12.3438 257.453 12.5938C258.359 12.8281 258.922 12.9766 259.141 13.0391L258.953 20.2344H254.875L254.172 17.3516C254.172 17.3203 253.812 17.2344 253.094 17.0938C252.391 16.9531 251.641 16.8828 250.844 16.8828C249.781 16.8828 248.961 17.0938 248.383 17.5156C247.82 17.9219 247.539 18.5234 247.539 19.3203C247.539 20.0234 247.906 20.5859 248.641 21.0078C249.375 21.4297 250.539 21.875 252.133 22.3438C253.836 22.8906 255.234 23.4141 256.328 23.9141C257.438 24.4141 258.383 25.1484 259.164 26.1172C259.961 27.0703 260.359 28.3125 260.359 29.8438C260.359 32.5625 259.359 34.6797 257.359 36.1953C255.359 37.7109 252.68 38.4688 249.32 38.4688C247.977 38.4688 246.648 38.3906 245.336 38.2344C244.023 38.0781 242.938 37.9219 242.078 37.7656C241.234 37.6094 240.703 37.4922 240.484 37.4141V29.6094H244.797L245.195 32.7266ZM271.211 26.6328C271.336 28.5547 271.914 30.0547 272.945 31.1328C273.992 32.1953 275.352 32.7266 277.023 32.7266C278.211 32.7266 279.398 32.5625 280.586 32.2344C281.789 31.8906 282.781 31.5469 283.562 31.2031C284.359 30.8438 284.867 30.5938 285.086 30.4531L287.148 34.4375C287.148 34.5 286.586 34.8984 285.461 35.6328C284.352 36.3516 282.984 37.0078 281.359 37.6016C279.75 38.1797 278.031 38.4688 276.203 38.4688C272.141 38.4688 269.047 37.3438 266.922 35.0938C264.797 32.8438 263.734 29.6562 263.734 25.5312C263.734 22.75 264.242 20.3125 265.258 18.2188C266.289 16.1094 267.766 14.4844 269.688 13.3438C271.609 12.1875 273.891 11.6094 276.531 11.6094C280.047 11.6094 282.742 12.6172 284.617 14.6328C286.492 16.6484 287.43 19.3984 287.43 22.8828C287.43 23.6484 287.391 24.3906 287.312 25.1094C287.234 25.8281 287.18 26.2812 287.148 26.4688L271.211 26.6328ZM276.062 17.3516C274.75 17.3516 273.68 17.7969 272.852 18.6875C272.023 19.5625 271.508 20.7188 271.305 22.1562H280C280 20.7188 279.68 19.5625 279.039 18.6875C278.398 17.7969 277.406 17.3516 276.062 17.3516ZM335.594 38H322.586V34.1562L325.141 32.9609V21.5469C325.141 20.2031 324.922 19.2109 324.484 18.5703C324.062 17.9297 323.352 17.6094 322.352 17.6094C321.43 17.6094 320.57 17.7969 319.773 18.1719C318.992 18.5312 318.336 18.9297 317.805 19.3672C317.289 19.7891 317.031 20.0312 317.031 20.0938V32.9609L319.516 34.1562V38H307.328V34.1562L309.836 32.9609V21.5469C309.836 20.1719 309.625 19.1719 309.203 18.5469C308.781 17.9219 308.078 17.6094 307.094 17.6094C306.172 17.6094 305.305 17.7969 304.492 18.1719C303.695 18.5312 303.031 18.9375 302.5 19.3906C301.984 19.8281 301.727 20.0625 301.727 20.0938V32.9609L304.258 34.1562V38H290.828V34.1562L294.508 32.9609V17.3516L290.875 16.1562V12.3125L300.906 12.0781L301.234 15.4766C301.234 15.4141 301.695 15.0391 302.617 14.3516C303.555 13.6641 304.648 13.0391 305.898 12.4766C307.148 11.8984 308.391 11.6094 309.625 11.6094C312.859 11.6094 315.07 12.9844 316.258 15.7344C317.148 14.8438 318.359 13.9375 319.891 13.0156C321.438 12.0781 323.125 11.6094 324.953 11.6094C327.422 11.6094 329.266 12.3594 330.484 13.8594C331.719 15.3594 332.336 17.4844 332.336 20.2344V32.9609L335.594 34.1562V38ZM347.852 14.1406C348.711 13.4688 349.68 12.8828 350.758 12.3828C351.836 11.8672 353.156 11.6094 354.719 11.6094C357.922 11.6094 360.359 12.7109 362.031 14.9141C363.719 17.1172 364.562 20.25 364.562 24.3125C364.562 28.8906 363.375 32.4141 361 34.8828C358.641 37.3516 355.188 38.5859 350.641 38.5859C349.078 38.5859 347.555 38.5 346.07 38.3281C344.602 38.1719 343.391 38.0156 342.438 37.8594C341.5 37.7031 340.906 37.5938 340.656 37.5312V5.98438L337.047 5.02344V1.17969L347.852 0.804688V14.1406ZM347.852 32.4219C347.852 32.4531 348.188 32.5312 348.859 32.6562C349.531 32.7656 350.383 32.8203 351.414 32.8203C355.227 32.8203 357.125 30.1484 357.109 24.8047C357.109 22.3359 356.734 20.4766 355.984 19.2266C355.234 17.9766 354.047 17.3516 352.422 17.3516C351.562 17.3516 350.789 17.5156 350.102 17.8438C349.43 18.1562 348.883 18.5078 348.461 18.8984C348.055 19.2734 347.852 19.4844 347.852 19.5312V32.4219ZM382.844 34.1562V38H367.445V34.1562L371.289 32.9609V5.98438L367.445 5.02344V1.17969L378.531 0.804688V32.9609L382.844 34.1562ZM392.242 26.6328C392.367 28.5547 392.945 30.0547 393.977 31.1328C395.023 32.1953 396.383 32.7266 398.055 32.7266C399.242 32.7266 400.43 32.5625 401.617 32.2344C402.82 31.8906 403.812 31.5469 404.594 31.2031C405.391 30.8438 405.898 30.5938 406.117 30.4531L408.18 34.4375C408.18 34.5 407.617 34.8984 406.492 35.6328C405.383 36.3516 404.016 37.0078 402.391 37.6016C400.781 38.1797 399.062 38.4688 397.234 38.4688C393.172 38.4688 390.078 37.3438 387.953 35.0938C385.828 32.8438 384.766 29.6562 384.766 25.5312C384.766 22.75 385.273 20.3125 386.289 18.2188C387.32 16.1094 388.797 14.4844 390.719 13.3438C392.641 12.1875 394.922 11.6094 397.562 11.6094C401.078 11.6094 403.773 12.6172 405.648 14.6328C407.523 16.6484 408.461 19.3984 408.461 22.8828C408.461 23.6484 408.422 24.3906 408.344 25.1094C408.266 25.8281 408.211 26.2812 408.18 26.4688L392.242 26.6328ZM397.094 17.3516C395.781 17.3516 394.711 17.7969 393.883 18.6875C393.055 19.5625 392.539 20.7188 392.336 22.1562H401.031C401.031 20.7188 400.711 19.5625 400.07 18.6875C399.43 17.7969 398.438 17.3516 397.094 17.3516ZM422.359 15.3828C422.359 15.3203 422.734 14.9531 423.484 14.2812C424.234 13.6094 425.102 13 426.086 12.4531C427.086 11.8906 428.07 11.6094 429.039 11.6094C429.805 11.6094 430.523 11.6719 431.195 11.7969C431.867 11.9219 432.391 12.0547 432.766 12.1953C433.156 12.3359 433.398 12.4219 433.492 12.4531L433.117 21.6875H428.805L428.078 17.6094C427.25 17.6094 426.445 17.8125 425.664 18.2188C424.898 18.6094 424.242 19.0469 423.695 19.5312C423.164 20 422.898 20.25 422.898 20.2812V32.9609L427.703 34.1562V38H411.859V34.1562L415.703 32.9609V17.3516L411.859 16.1562V12.3125L421.938 12.0781L422.359 15.3828Z" fill="black"/>
</svg>
